# xmcd
#
# Track frame offsets: 
#        182
#        21465
#        45990
#        59382
#        77952
#        110885
#        134550
#        144647
#
# Disc length: 2178 seconds
#
# Revision: 1
# Processed by: cddbd v1.5.2PL0 Copyright (c) Steve Scherf et al.
# Submitted via: ExactAudioCopy v0.99pb5
#
DISCID=77088008
DTITLE=Van Der Graaf Generator - Now And Then
DYEAR=1985
DGENRE=Progressive Rock
TTITLE0=Saigon Roulette
TTITLE1=The Liquidator
TTITLE2=Gentlemen Prefer Blues
TTITLE3=The Main Slide
TTITLE4=Tropic Of Convrsation
TTITLE5=Spooks
TTITLE6=Tarzan
TTITLE7=The Epilogue
EXTD=
EXTT0=
EXTT1=
EXTT2=
EXTT3=
EXTT4=
EXTT5=
EXTT6=
EXTT7=
PLAYORDER=
